<svg xmlns="http://www.w3.org/2000/svg" viewBox="0 0 204.5 127.49"><defs><style>.cls-1{fill:#f2f2f2;}</style></defs><title>Recurso 4</title><g id="Capa_2" data-name="Capa 2"><g id="Capa_1-2" data-name="Capa 1"><polygon class="cls-1" points="123 1.99 122.5 98.49 132 117.99 132 63.99 195 63.99 195 126.99 204 126.99 204 54.99 132 54.99 132 18.99 123 1.99"/><path class="cls-1" d="M204.5,127.49h-10v-63h-62v55.67L122,98.61v-.12L122.51,0l10,18.87V54.49h72Zm-9-1h8v-71h-72V19.12L123.49,4,123,98.38l8.5,17.45V63.49h64Z"/><rect class="cls-1" x="195" y="0.99" width="9" height="45"/><path class="cls-1" d="M204.5,46.49h-10V.49h10Zm-9-1h8v-44h-8Z"/><polygon class="cls-1" points="0 126.99 64 0.99 127 126.99 114 126.99 65 25.99 13 126.99 0 126.99"/><polyline class="cls-1" points="38 126.99 56 91.99 85.02 91.99 79.95 81.53 62 81.99 70.77 62.61 64.71 50.13 25 126.99"/></g></g></svg>